# xmcd
#
# Track frame offsets:
# 150
# 15027
# 36027
# 51605
# 72686
# 85917
# 103960
# 125111
# 141473
# 159949
# 175691
# 188829
# 203772
# 223101
# 241765
# 257871
#
# Disc length: 3714 seconds
#
#
# Revision: 6
# Processed by: cddbd v1.5.1PL0 Copyright (c) Steve Scherf et al.
# Submitted via: FreeRIP 2.91 
#
DISCID=eb0e8010
DTITLE=Καίτη Γαρμπή - Έμμονες Ιδέες
DYEAR=2003
DGENRE=Ελληνικά
TTITLE0=Να Περνάς
TTITLE1=Πόσο Θα 'Θελα
TTITLE2=’ντρες
TTITLE3=Έμμονες Ιδέες
TTITLE4=Εσένα Μόνο
TTITLE5=Ήλιος Ή Βροχή
TTITLE6=Τα Ριψοκίνδυνα
TTITLE7=Δεν Σ' Αγαπάει
TTITLE8=’ψυχα Πράγματα
TTITLE9=Όλα Θα Τα Γκρεμίσω
TTITLE10=Παράτα Με Λοιπόν
TTITLE11=Στεναχωριέμαι
TTITLE12=Απόψε Θεε Μου ’ναψε Τ' Αστέρια
TTITLE13=Κανονικά
TTITLE14=Μια Νύχτα Μόνο
TTITLE15=Ζήλια
EXTD=
EXTT0=
EXTT1=
EXTT2=
EXTT3=
EXTT4=
EXTT5=
EXTT6=
EXTT7=
EXTT8=
EXTT9=
EXTT10=
EXTT11=
EXTT12=
EXTT13=
EXTT14=
EXTT15=
PLAYORDER=
